<svg width="238" height="112" viewBox="0 0 238 112" fill="none" xmlns="http://www.w3.org/2000/svg">
<path d="M16.1225 45.0729C17.0206 42.309 20.9308 42.309 21.8289 45.0729L24.2518 52.5299C24.6534 53.766 25.8053 54.6028 27.1049 54.6028H34.9456C37.8518 54.6028 39.0601 58.3217 36.709 60.0299L30.3657 64.6385C29.3143 65.4025 28.8743 66.7566 29.2759 67.9926L31.6988 75.4496C32.5969 78.2135 29.4335 80.5119 27.0823 78.8037L20.7391 74.195C19.6876 73.4311 18.2638 73.4311 17.2123 74.195L10.8691 78.8037C8.51794 80.5119 5.3545 78.2135 6.25256 75.4496L8.67547 67.9926C9.07709 66.7566 8.63712 65.4025 7.58565 64.6385L1.24239 60.0299C-1.10875 58.3217 0.0995834 54.6028 3.00575 54.6028H10.8464C12.1461 54.6028 13.298 53.766 13.6996 52.5299L16.1225 45.0729Z" fill="#D5155B"/>
<path d="M65.5981 27.0729C66.4962 24.309 70.4064 24.309 71.3045 27.0729L73.7274 34.5299C74.129 35.766 75.2809 36.6028 76.5806 36.6028H84.4213C87.3274 36.6028 88.5358 40.3217 86.1846 42.0299L79.8414 46.6385C78.7899 47.4025 78.3499 48.7566 78.7515 49.9926L81.1744 57.4496C82.0725 60.2135 78.9091 62.5119 76.5579 60.8037L70.2147 56.195C69.1632 55.4311 67.7394 55.4311 66.688 56.195L60.3447 60.8037C57.9936 62.5119 54.8301 60.2135 55.7282 57.4496L58.1511 49.9926C58.5527 48.7566 58.1127 47.4025 57.0613 46.6385L50.718 42.0299C48.3669 40.3217 49.5752 36.6028 52.4814 36.6028H60.3221C61.6217 36.6028 62.7736 35.766 63.1752 34.5299L65.5981 27.0729Z" fill="#D5155B"/>
<path d="M115.55 2.07295C116.448 -0.690983 120.358 -0.690983 121.256 2.07295L123.679 9.52989C124.081 10.766 125.233 11.6028 126.532 11.6028H134.373C137.279 11.6028 138.488 15.3217 136.136 17.0299L129.793 21.6385C128.742 22.4025 128.302 23.7566 128.703 24.9926L131.126 32.4496C132.024 35.2135 128.861 37.5119 126.51 35.8037L120.166 31.195C119.115 30.4311 117.691 30.4311 116.64 31.195L110.296 35.8037C107.945 37.5119 104.782 35.2135 105.68 32.4496L108.103 24.9926C108.504 23.7566 108.064 22.4025 107.013 21.6385L100.67 17.0299C98.3185 15.3217 99.5268 11.6028 102.433 11.6028H110.274C111.573 11.6028 112.725 10.766 113.127 9.5299L115.55 2.07295Z" fill="#D5155B"/>
<path d="M165.501 27.0729C166.399 24.309 170.309 24.309 171.207 27.0729L173.63 34.5299C174.032 35.766 175.183 36.6028 176.483 36.6028H184.324C187.23 36.6028 188.438 40.3217 186.087 42.0299L179.744 46.6385C178.692 47.4025 178.252 48.7566 178.654 49.9926L181.077 57.4496C181.975 60.2135 178.812 62.5119 176.46 60.8037L170.117 56.195C169.066 55.4311 167.642 55.4311 166.59 56.195L160.247 60.8037C157.896 62.5119 154.733 60.2135 155.631 57.4496L158.054 49.9926C158.455 48.7566 158.015 47.4025 156.964 46.6385L150.621 42.0299C148.269 40.3217 149.478 36.6028 152.384 36.6028H160.225C161.524 36.6028 162.676 35.766 163.078 34.5299L165.501 27.0729Z" fill="#D5155B"/>
<path d="M215.452 45.0729C216.35 42.309 220.261 42.309 221.159 45.0729L223.582 52.5299C223.983 53.766 225.135 54.6028 226.435 54.6028H234.275C237.182 54.6028 238.39 58.3217 236.039 60.0299L229.696 64.6385C228.644 65.4025 228.204 66.7566 228.606 67.9926L231.029 75.4496C231.927 78.2135 228.763 80.5119 226.412 78.8037L220.069 74.195C219.017 73.4311 217.594 73.4311 216.542 74.195L210.199 78.8037C207.848 80.5119 204.684 78.2135 205.582 75.4496L208.005 67.9926C208.407 66.7566 207.967 65.4025 206.915 64.6385L200.572 60.0299C198.221 58.3217 199.429 54.6028 202.336 54.6028H210.176C211.476 54.6028 212.628 53.766 213.029 52.5299L215.452 45.0729Z" fill="#D5155B"/>
<path d="M75.7441 104V99.6204H64.4012V96.1702C65.0313 95.183 65.6615 94.1905 66.2917 93.1927C66.9218 92.195 67.552 91.2024 68.1821 90.2152C68.8123 89.2174 69.4372 88.2249 70.0569 87.2377C70.687 86.2399 71.3172 85.2474 71.9474 84.2602C72.5775 83.2624 73.2077 82.2646 73.8379 81.2669H79.6196V96.312H82.6916V99.6204H79.6196V104H75.7441ZM68.0561 96.3908H75.8071V84.3389H75.7126C75.198 85.1371 74.6833 85.9353 74.1687 86.7335C73.6646 87.5212 73.1552 88.3142 72.6405 89.1124C72.1364 89.9106 71.627 90.7088 71.1124 91.507C70.5978 92.3052 70.0831 93.1034 69.5685 93.9016C69.0644 94.6893 68.5602 95.4823 68.0561 96.2805V96.3908ZM86.3869 104.252C85.7462 104.252 85.2054 104.032 84.7642 103.59C84.3231 103.149 84.1026 102.614 84.1026 101.983C84.1026 101.343 84.3231 100.802 84.7642 100.361C85.2054 99.9197 85.7462 99.6991 86.3869 99.6991C87.0171 99.6991 87.5527 99.9197 87.9938 100.361C88.4349 100.802 88.6555 101.343 88.6555 101.983C88.6555 102.614 88.4349 103.149 87.9938 103.59C87.5527 104.032 87.0171 104.252 86.3869 104.252ZM99.2983 80.873C100.548 80.873 101.724 81.0988 102.827 81.5505C103.941 82.0021 104.917 82.6953 105.757 83.63C106.608 84.5647 107.27 85.7568 107.742 87.2062C108.226 88.645 108.467 90.3622 108.467 92.3577V92.3893C108.467 94.8889 108.094 97.0367 107.349 98.8327C106.613 100.629 105.553 102.004 104.166 102.96C102.79 103.916 101.136 104.394 99.2038 104.394C97.8069 104.394 96.5414 104.142 95.4071 103.638C94.2833 103.134 93.3485 102.446 92.6028 101.574C91.8676 100.692 91.3793 99.6781 91.1377 98.5333L91.1062 98.36H95.1235L95.1865 98.5018C95.3966 99.0165 95.6854 99.4681 96.053 99.8567C96.4206 100.245 96.8722 100.55 97.4078 100.77C97.9435 100.98 98.5474 101.085 99.2195 101.085C100.448 101.085 101.441 100.734 102.197 100.03C102.964 99.3158 103.536 98.3705 103.914 97.1942C104.303 96.0074 104.518 94.6998 104.56 93.2715C104.571 93.1349 104.576 92.9984 104.576 92.8619C104.586 92.7253 104.592 92.5888 104.592 92.4523L103.883 88.687C103.883 87.8468 103.683 87.0906 103.284 86.4185C102.885 85.7358 102.339 85.1949 101.646 84.7958C100.963 84.3967 100.196 84.1971 99.3456 84.1971C98.5054 84.1971 97.7387 84.3967 97.0455 84.7958C96.3523 85.1844 95.8009 85.7148 95.3913 86.387C94.9922 87.0486 94.7927 87.7891 94.7927 88.6083V88.6398C94.7927 89.501 94.987 90.2677 95.3756 90.9399C95.7642 91.6015 96.2998 92.1214 96.9825 92.4995C97.6651 92.8776 98.4371 93.0667 99.2983 93.0667C100.17 93.0667 100.952 92.8829 101.646 92.5153C102.339 92.1372 102.885 91.6226 103.284 90.9714C103.683 90.3097 103.883 89.5535 103.883 88.7028V88.687H104.844V92.5468H104.513C104.208 93.24 103.762 93.8596 103.174 94.4058C102.586 94.9519 101.877 95.3878 101.047 95.7134C100.217 96.0389 99.2878 96.2017 98.2585 96.2017C96.7987 96.2017 95.5068 95.8814 94.383 95.2407C93.2593 94.6001 92.377 93.7178 91.7364 92.5941C91.1062 91.4703 90.7911 90.1994 90.7911 88.7816V88.7501C90.7911 87.2167 91.1587 85.8618 91.8939 84.6855C92.6396 83.4987 93.6479 82.5692 94.9187 81.897C96.2 81.2144 97.6599 80.873 99.2983 80.873ZM122.191 104.331C120.783 104.331 119.56 103.984 118.52 103.291C117.491 102.587 116.693 101.584 116.126 100.282C115.569 98.9797 115.291 97.4358 115.291 95.6503V95.6346C115.291 93.8386 115.574 92.2947 116.141 91.0029C116.708 89.7006 117.507 88.7028 118.536 88.0096C119.565 87.3059 120.778 86.9541 122.175 86.9541C122.973 86.9541 123.703 87.0854 124.365 87.348C125.037 87.6 125.631 87.9676 126.145 88.4507C126.66 88.9234 127.075 89.4958 127.39 90.1679H127.484V81.2669H131.391V104H127.484V101.164H127.39C127.085 101.826 126.676 102.393 126.161 102.866C125.657 103.328 125.069 103.69 124.396 103.953C123.735 104.205 123 104.331 122.191 104.331ZM123.372 101.038C124.181 101.038 124.895 100.818 125.515 100.377C126.135 99.9355 126.618 99.3105 126.964 98.5018C127.311 97.6931 127.484 96.7426 127.484 95.6503V95.6346C127.484 94.5423 127.306 93.5971 126.949 92.7989C126.602 91.9902 126.119 91.3652 125.499 90.9241C124.89 90.483 124.181 90.2625 123.372 90.2625C122.532 90.2625 121.802 90.483 121.183 90.9241C120.573 91.3547 120.101 91.9691 119.765 92.7674C119.439 93.5656 119.276 94.5213 119.276 95.6346V95.6503C119.276 96.7531 119.439 97.7089 119.765 98.5176C120.101 99.3263 120.573 99.9512 121.183 100.392C121.802 100.823 122.532 101.038 123.372 101.038ZM141.073 104.331C139.403 104.331 137.964 103.979 136.756 103.275C135.559 102.572 134.64 101.574 133.999 100.282C133.359 98.9902 133.038 97.4621 133.038 95.6976V95.6819C133.038 93.9279 133.359 92.3998 133.999 91.0974C134.651 89.7846 135.559 88.7658 136.725 88.0411C137.901 87.3164 139.288 86.9541 140.884 86.9541C142.47 86.9541 143.841 87.3059 144.996 88.0096C146.162 88.7028 147.054 89.6796 147.674 90.9399C148.304 92.2002 148.619 93.6706 148.619 95.351V96.6113H134.976V93.9962H146.745L144.854 96.438V94.9257C144.854 93.8334 144.686 92.9249 144.35 92.2002C144.014 91.4755 143.552 90.9346 142.964 90.5775C142.375 90.2099 141.698 90.0261 140.931 90.0261C140.154 90.0261 139.461 90.2152 138.852 90.5933C138.253 90.9609 137.78 91.5123 137.434 92.2475C137.098 92.9827 136.93 93.8754 136.93 94.9257V96.438C136.93 97.4568 137.098 98.3285 137.434 99.0532C137.78 99.7674 138.269 100.319 138.899 100.707C139.529 101.085 140.28 101.275 141.152 101.275C141.803 101.275 142.375 101.175 142.869 100.975C143.363 100.765 143.767 100.497 144.082 100.172C144.408 99.8462 144.633 99.4943 144.76 99.1162L144.791 99.006H148.446L148.414 99.1793C148.278 99.8199 148.026 100.45 147.658 101.07C147.291 101.679 146.797 102.23 146.177 102.724C145.558 103.218 144.823 103.611 143.972 103.905C143.121 104.189 142.155 104.331 141.073 104.331ZM164.155 104.394C162.579 104.394 161.193 104.105 159.996 103.527C158.798 102.95 157.843 102.167 157.128 101.18C156.425 100.182 156.02 99.0585 155.915 97.8087L155.9 97.6038H159.712L159.728 97.7141C159.833 98.3443 160.085 98.9167 160.484 99.4313C160.894 99.946 161.413 100.35 162.044 100.644C162.674 100.938 163.388 101.085 164.186 101.085C165.089 101.085 165.882 100.896 166.565 100.518C167.258 100.13 167.799 99.5994 168.188 98.9272C168.576 98.2445 168.771 97.4568 168.771 96.5641V96.5326C168.771 95.6608 168.576 94.8941 168.188 94.2325C167.799 93.5603 167.258 93.0352 166.565 92.6571C165.882 92.2685 165.095 92.0742 164.202 92.0742C163.561 92.0742 162.963 92.1687 162.406 92.3577C161.849 92.5468 161.356 92.8251 160.925 93.1927C160.715 93.3713 160.515 93.5708 160.326 93.7914C160.137 94.0014 159.975 94.2325 159.838 94.4845H156.309L157.396 81.2669H171.354V84.591H160.641L160.011 91.444H160.09C160.426 90.9294 160.846 90.4935 161.35 90.1364C161.865 89.7793 162.448 89.5063 163.099 89.3172C163.761 89.1177 164.47 89.0179 165.226 89.0179C166.675 89.0179 167.962 89.3435 169.086 89.9946C170.209 90.6353 171.092 91.5123 171.732 92.6256C172.373 93.7389 172.693 95.0202 172.693 96.4696V96.5011C172.693 98.0555 172.331 99.4261 171.606 100.613C170.882 101.8 169.879 102.729 168.597 103.401C167.316 104.063 165.835 104.394 164.155 104.394Z" fill="#D5155B"/>
</svg>
