<svg width="59" height="54" viewBox="0 0 59 54" fill="none" xmlns="http://www.w3.org/2000/svg">
<path d="M18.6351 45.2566C13.6927 45.2566 8.95284 43.2933 5.45809 39.7985C1.96333 36.3038 0 31.5639 0 26.6215C0 21.6792 1.96333 16.9393 5.45809 13.4445C8.95284 9.94979 13.6927 7.98645 18.6351 7.98645C21.3316 7.97422 23.9968 8.56546 26.4352 9.71685L31.5998 12.166L26.4086 14.5354C24.0996 15.6007 22.1442 17.3052 20.7736 19.4471C19.403 21.589 18.6746 24.0787 18.6746 26.6215C18.6746 29.1644 19.403 31.6541 20.7736 33.796C22.1442 35.9378 24.0996 37.6423 26.4086 38.7077L31.5998 41.077L26.4352 43.5262C23.9968 44.6776 21.3316 45.2688 18.6351 45.2566ZM18.6351 13.3108C16.8871 13.3282 15.1596 13.6898 13.5514 14.3749C11.9432 15.06 10.4856 16.0551 9.26193 17.3035C6.79064 19.8247 5.42211 23.2244 5.45741 26.7546C5.49272 30.2849 6.92896 33.6565 9.45017 36.1278C11.9714 38.5991 15.3711 39.9676 18.9013 39.9323C17.1304 38.1972 15.7236 36.1262 14.7632 33.8406C13.8028 31.555 13.3081 29.1007 13.3081 26.6215C13.3081 24.1423 13.8028 21.6881 14.7632 19.4024C15.7236 17.1168 17.1304 15.0458 18.9013 13.3108H18.6351Z" fill="#FF88B3"/>
<path d="M31.9458 45.2566C29.2492 45.2688 26.5841 44.6776 24.1457 43.5262C20.2845 41.7503 17.1464 38.708 15.2517 34.9038C13.357 31.0996 12.8196 26.762 13.7286 22.6104C14.6376 18.4588 16.9383 14.7426 20.2493 12.0781C23.5603 9.41364 27.6825 7.96094 31.9325 7.96094C36.1824 7.96094 40.3047 9.41364 43.6157 12.0781C46.9266 14.7426 49.2274 18.4588 50.1363 22.6104C51.0453 26.762 50.5079 31.0996 48.6132 34.9038C46.7185 38.708 43.5804 41.7503 39.7193 43.5262C37.2872 44.6687 34.6328 45.2596 31.9458 45.2566ZM31.9458 13.3108C30.0424 13.2929 28.1593 13.7023 26.4351 14.5087C23.6699 15.77 21.4197 17.9396 20.0583 20.657C18.6969 23.3743 18.3065 26.4756 18.9519 29.4456C19.5972 32.4156 21.2395 35.0752 23.6058 36.9825C25.9721 38.8898 28.9198 39.9299 31.9591 39.9299C34.9983 39.9299 37.9461 38.8898 40.3124 36.9825C42.6786 35.0752 44.3209 32.4156 44.9663 29.4456C45.6117 26.4756 45.2212 23.3743 43.8599 20.657C42.4985 17.9396 40.2482 15.77 37.4831 14.5087C35.7526 13.6931 33.8587 13.2834 31.9458 13.3108Z" fill="#D4145A"/>
<path d="M55.9054 23.9594H50.5811C49.1108 23.9594 47.9189 25.1513 47.9189 26.6216C47.9189 28.0918 49.1108 29.2837 50.5811 29.2837H55.9054C57.3757 29.2837 58.5676 28.0918 58.5676 26.6216C58.5676 25.1513 57.3757 23.9594 55.9054 23.9594Z" fill="#D4145A"/>
<path d="M45.2523 6.89947L41.4874 10.6643C40.4478 11.704 40.4478 13.3895 41.4874 14.4292C42.527 15.4688 44.2126 15.4688 45.2523 14.4292L49.0171 10.6643C50.0568 9.62469 50.0568 7.93911 49.0171 6.89947C47.9775 5.85984 46.2919 5.85984 45.2523 6.89947Z" fill="#D4145A"/>
<path d="M34.608 2.66215C34.608 1.19189 33.4161 0 31.9458 0C30.4756 0 29.2837 1.19189 29.2837 2.66215V7.98646C29.2837 9.45673 30.4756 10.6486 31.9458 10.6486C33.4161 10.6486 34.608 9.45673 34.608 7.98646V2.66215Z" fill="#D4145A"/>
<path d="M34.608 45.2566C34.608 43.7864 33.4161 42.5945 31.9458 42.5945C30.4756 42.5945 29.2837 43.7864 29.2837 45.2566V50.5809C29.2837 52.0512 30.4756 53.2431 31.9458 53.2431C33.4161 53.2431 34.608 52.0512 34.608 50.5809V45.2566Z" fill="#D4145A"/>
<path d="M45.2361 38.8299C44.1965 37.7903 42.5109 37.7903 41.4713 38.8299C40.4317 39.8696 40.4317 41.5551 41.4713 42.5948L45.2361 46.3596C46.2758 47.3993 47.9614 47.3993 49.001 46.3596C50.0406 45.32 50.0406 43.6344 49.001 42.5948L45.2361 38.8299Z" fill="#D4145A"/>
</svg>
