<svg width="63" height="54" viewBox="0 0 63 54" fill="none" xmlns="http://www.w3.org/2000/svg">
<path d="M31.0591 26.6208C35.9521 26.6208 39.9332 22.6042 39.9332 17.668C39.9332 16.196 39.5694 14.7329 38.8805 13.434L32.0386 0.586521C31.6215 -0.195507 30.4967 -0.195507 30.0797 0.586521L23.2355 13.4362C22.5478 14.734 22.1851 16.1971 22.1851 17.668C22.1851 22.6042 26.1662 26.6208 31.0591 26.6208ZM25.1956 14.4767L31.0591 3.46727L36.9216 14.4744C37.4407 15.4539 37.7147 16.5576 37.7147 17.668C37.7147 21.3807 34.7297 24.4023 31.0591 24.4023C27.3886 24.4023 24.4036 21.3807 24.4036 17.668C24.4036 16.5576 24.6776 15.4539 25.1956 14.4767Z" fill="#D4145A"/>
<path d="M31.0591 22.1838C32.5278 22.1838 32.5267 19.9653 31.0591 19.9653C29.8356 19.9653 28.8406 18.9348 28.8406 17.668C28.8406 16.2005 26.6221 16.1994 26.6221 17.668C26.6221 20.1583 28.6121 22.1838 31.0591 22.1838Z" fill="#D4145A"/>
<path d="M43.2612 24.4024H61.0094C62.4781 24.4024 62.4769 22.1838 61.0094 22.1838H43.2612C41.7926 22.1838 41.7937 24.4024 43.2612 24.4024Z" fill="#D4145A"/>
<path d="M1.10938 24.4024H18.8575C20.3262 24.4024 20.3251 22.1838 18.8575 22.1838H1.10938C-0.35928 22.1838 -0.358171 24.4024 1.10938 24.4024Z" fill="#D4145A"/>
<path d="M61.0094 27.7302H1.10938C-0.35928 27.7302 -0.358171 29.9487 1.10938 29.9487H61.0094C61.6228 29.9487 62.1187 29.4517 62.1187 28.8394C62.1187 28.2271 61.6228 27.7302 61.0094 27.7302Z" fill="#D4145A"/>
<path d="M39.9331 34.3857C37.4861 34.3857 35.4961 36.3757 35.4961 38.8227C35.4961 41.2697 37.4861 43.2598 39.9331 43.2598C42.3802 43.2598 44.3702 41.2697 44.3702 38.8227C44.3702 36.3757 42.3802 34.3857 39.9331 34.3857ZM39.9331 41.0412C38.7096 41.0412 37.7146 40.0462 37.7146 38.8227C37.7146 37.5992 38.7096 36.6042 39.9331 36.6042C41.1566 36.6042 42.1517 37.5992 42.1517 38.8227C42.1517 40.0462 41.1566 41.0412 39.9331 41.0412Z" fill="#D4145A"/>
<path d="M22.1851 34.3857C19.7381 34.3857 17.748 36.3757 17.748 38.8227C17.748 41.2697 19.7381 43.2598 22.1851 43.2598C24.6321 43.2598 26.6221 41.2697 26.6221 38.8227C26.6221 36.3757 24.6321 34.3857 22.1851 34.3857ZM22.1851 41.0412C20.9616 41.0412 19.9666 40.0462 19.9666 38.8227C19.9666 37.5992 20.9616 36.6042 22.1851 36.6042C23.4086 36.6042 24.4036 37.5992 24.4036 38.8227C24.4036 40.0462 23.4086 41.0412 22.1851 41.0412Z" fill="#D4145A"/>
<path d="M31.0594 38.2681C31.9783 38.2681 32.7233 37.5231 32.7233 36.6042C32.7233 35.6853 31.9783 34.9403 31.0594 34.9403C30.1405 34.9403 29.3955 35.6853 29.3955 36.6042C29.3955 37.5231 30.1405 38.2681 31.0594 38.2681Z" fill="#D4145A"/>
<path d="M13.3109 38.2681C14.2298 38.2681 14.9748 37.5231 14.9748 36.6042C14.9748 35.6853 14.2298 34.9403 13.3109 34.9403C12.3919 34.9403 11.647 35.6853 11.647 36.6042C11.647 37.5231 12.3919 38.2681 13.3109 38.2681Z" fill="#D4145A"/>
<path d="M4.43684 49.3607C5.35578 49.3607 6.10073 48.6157 6.10073 47.6968C6.10073 46.7778 5.35578 46.0329 4.43684 46.0329C3.5179 46.0329 2.77295 46.7778 2.77295 47.6968C2.77295 48.6157 3.5179 49.3607 4.43684 49.3607Z" fill="#D4145A"/>
<path d="M22.1854 49.3607C23.1043 49.3607 23.8493 48.6157 23.8493 47.6968C23.8493 46.7778 23.1043 46.0329 22.1854 46.0329C21.2664 46.0329 20.5215 46.7778 20.5215 47.6968C20.5215 48.6157 21.2664 49.3607 22.1854 49.3607Z" fill="#D4145A"/>
<path d="M39.9334 49.3607C40.8524 49.3607 41.5973 48.6157 41.5973 47.6968C41.5973 46.7778 40.8524 46.0329 39.9334 46.0329C39.0145 46.0329 38.2695 46.7778 38.2695 47.6968C38.2695 48.6157 39.0145 49.3607 39.9334 49.3607Z" fill="#D4145A"/>
<path d="M57.6815 49.3607C58.6004 49.3607 59.3454 48.6157 59.3454 47.6968C59.3454 46.7778 58.6004 46.0329 57.6815 46.0329C56.7625 46.0329 56.0176 46.7778 56.0176 47.6968C56.0176 48.6157 56.7625 49.3607 57.6815 49.3607Z" fill="#D4145A"/>
<path d="M48.8074 38.2681C49.7264 38.2681 50.4713 37.5231 50.4713 36.6042C50.4713 35.6853 49.7264 34.9403 48.8074 34.9403C47.8885 34.9403 47.1436 35.6853 47.1436 36.6042C47.1436 37.5231 47.8885 38.2681 48.8074 38.2681Z" fill="#D4145A"/>
<path d="M57.6817 34.3857C55.2346 34.3857 53.2446 36.3757 53.2446 38.8227C53.2446 41.2697 55.2346 43.2598 57.6817 43.2598C60.1287 43.2598 62.1187 41.2697 62.1187 38.8227C62.1187 36.3757 60.1287 34.3857 57.6817 34.3857ZM57.6817 41.0412C56.4582 41.0412 55.4631 40.0462 55.4631 38.8227C55.4631 37.5992 56.4582 36.6042 57.6817 36.6042C58.9052 36.6042 59.9002 37.5992 59.9002 38.8227C59.9002 40.0462 58.9052 41.0412 57.6817 41.0412Z" fill="#D4145A"/>
<path d="M4.43704 34.3857C1.99001 34.3857 0 36.3757 0 38.8227C0 41.2697 1.99001 43.2598 4.43704 43.2598C6.88407 43.2598 8.87408 41.2697 8.87408 38.8227C8.87408 36.3757 6.88407 34.3857 4.43704 34.3857ZM4.43704 41.0412C3.21353 41.0412 2.21852 40.0462 2.21852 38.8227C2.21852 37.5992 3.21353 36.6042 4.43704 36.6042C5.66055 36.6042 6.65556 37.5992 6.65556 38.8227C6.65556 40.0462 5.66055 41.0412 4.43704 41.0412Z" fill="#D4145A"/>
<path d="M13.3111 44.369C10.864 44.369 8.87402 46.359 8.87402 48.8061C8.87402 51.2531 10.864 53.2431 13.3111 53.2431C15.7581 53.2431 17.7481 51.2531 17.7481 48.8061C17.7481 46.359 15.7581 44.369 13.3111 44.369ZM13.3111 51.0246C12.0875 51.0246 11.0925 50.0296 11.0925 48.8061C11.0925 47.5825 12.0875 46.5875 13.3111 46.5875C14.5346 46.5875 15.5296 47.5825 15.5296 48.8061C15.5296 50.0296 14.5346 51.0246 13.3111 51.0246Z" fill="#D4145A"/>
<path d="M31.0591 44.369C28.6121 44.369 26.6221 46.359 26.6221 48.8061C26.6221 51.2531 28.6121 53.2431 31.0591 53.2431C33.5061 53.2431 35.4962 51.2531 35.4962 48.8061C35.4962 46.359 33.5061 44.369 31.0591 44.369ZM31.0591 51.0246C29.8356 51.0246 28.8406 50.0296 28.8406 48.8061C28.8406 47.5825 29.8356 46.5875 31.0591 46.5875C32.2826 46.5875 33.2776 47.5825 33.2776 48.8061C33.2776 50.0296 32.2826 51.0246 31.0591 51.0246Z" fill="#D4145A"/>
<path d="M48.8076 44.369C46.3606 44.369 44.3706 46.359 44.3706 48.8061C44.3706 51.2531 46.3606 53.2431 48.8076 53.2431C51.2547 53.2431 53.2447 51.2531 53.2447 48.8061C53.2447 46.359 51.2547 44.369 48.8076 44.369ZM48.8076 51.0246C47.5841 51.0246 46.5891 50.0296 46.5891 48.8061C46.5891 47.5825 47.5841 46.5875 48.8076 46.5875C50.0312 46.5875 51.0262 47.5825 51.0262 48.8061C51.0262 50.0296 50.0312 51.0246 48.8076 51.0246Z" fill="#D4145A"/>
</svg>
