<svg width="60" height="54" viewBox="0 0 60 54" fill="none" xmlns="http://www.w3.org/2000/svg">
<path fill-rule="evenodd" clip-rule="evenodd" d="M15.6118 36.6873C16.4813 37.1611 17.1982 37.3037 17.8692 37.2268C17.4711 38.265 17.187 39.2895 17.1126 40.314C16.8559 43.8241 17.894 46.9422 20.1142 49.3298C22.4869 51.8824 26.0503 53.3459 29.8916 53.3459C33.7328 53.3459 37.2963 51.8824 39.669 49.3298C41.8892 46.941 42.9273 43.8241 42.6706 40.314C42.5961 39.2895 42.3121 38.265 41.914 37.2268C42.585 37.3037 43.3019 37.1611 44.1713 36.6873C44.8089 36.3387 45.3161 36.0299 45.7242 35.7831C46.4882 35.3192 46.91 35.0637 47.3465 35.0215C48.7109 34.8913 49.5431 35.4916 50.425 36.1279C50.7128 36.335 51.0104 36.5496 51.3218 36.7319C51.7943 37.0085 52.3735 37.2653 53.0966 37.2653C53.7143 37.2653 54.4387 37.078 55.2908 36.557C55.8836 36.1949 56.2669 35.9133 56.5732 35.6863C57.2691 35.1741 57.4129 35.0674 59.075 34.9868C59.4855 34.9657 59.8018 34.6172 59.7819 34.2066C59.7621 33.7961 59.4111 33.4773 59.003 33.4997C56.9875 33.5989 56.603 33.8159 55.6901 34.4882C55.4061 34.6978 55.0526 34.9595 54.5143 35.287C53.2877 36.0374 52.6601 35.7918 52.0746 35.4482C51.8241 35.3006 51.5673 35.1158 51.2957 34.9198C50.3283 34.2228 49.1252 33.3558 47.2039 33.5394C46.4287 33.6138 45.8408 33.971 44.9515 34.5105C44.536 34.7623 44.0659 35.0488 43.4582 35.38C42.4795 35.9146 41.9388 35.8401 41.1251 35.4085C40.8622 34.8541 40.5819 34.2922 40.2966 33.7242C39.2969 31.7223 38.2637 29.6535 37.8681 27.5573C37.7986 27.184 37.8817 26.8603 38.1248 26.5688C38.3667 26.2761 38.6693 26.1334 39.0488 26.1334H59.039C59.4495 26.1334 59.7832 25.801 59.7832 25.3892C59.7832 24.9787 59.4495 24.6451 59.039 24.6451H39.0488C38.234 24.6451 37.4984 24.9911 36.9788 25.6187C36.4578 26.2451 36.2544 27.0327 36.4057 27.8327C36.8398 30.1335 37.9202 32.2966 38.9657 34.389C40.0374 36.5347 41.0507 38.5614 41.1871 40.4219C41.4116 43.509 40.5099 46.2389 38.5788 48.3165C36.4863 50.5676 33.3198 51.8576 29.8916 51.8576C26.4621 51.8576 23.2956 50.5676 21.2044 48.3165C19.272 46.2389 18.3703 43.509 18.596 40.4219C18.7325 38.5614 19.7446 36.5347 20.8174 34.389C21.863 32.2966 22.9433 30.1335 23.3775 27.8327C23.5288 27.0327 23.3254 26.2451 22.8044 25.6187C22.2847 24.9911 21.5492 24.6451 20.7343 24.6451H0.744189C0.333645 24.6451 0 24.9787 0 25.3892C0 25.801 0.333645 26.1334 0.744189 26.1334H20.7343C21.1139 26.1334 21.4165 26.2761 21.6584 26.5688C21.9015 26.8603 21.9846 27.184 21.9151 27.5573C21.5195 29.6535 20.485 31.7223 19.4853 33.7242C19.2013 34.2922 18.921 34.8541 18.6581 35.4085C17.8444 35.8401 17.3036 35.9146 16.325 35.38C15.7173 35.0488 15.2472 34.7623 14.8317 34.5105C13.9411 33.971 13.3545 33.6138 12.578 33.5394C10.658 33.3558 9.45368 34.2228 8.48748 34.9198C8.21585 35.1158 7.9591 35.3006 7.70856 35.4482C7.12313 35.7918 6.49553 36.0374 5.26762 35.287C4.73056 34.9595 4.37707 34.6978 4.0918 34.4882C3.18017 33.8159 2.79567 33.5989 0.780158 33.4997C0.370854 33.4786 0.0210854 33.7961 0.00124034 34.2066C-0.019845 34.6172 0.297676 34.9657 0.70822 34.9868C2.37024 35.0674 2.51412 35.1741 3.2087 35.6863C3.51629 35.9133 3.89955 36.1949 4.49242 36.557C5.34452 37.078 6.06762 37.2653 6.68654 37.2653C7.40964 37.2653 7.98887 37.0085 8.46143 36.7319C8.77275 36.5496 9.07042 36.335 9.35818 36.1279C10.24 35.4916 11.0723 34.8901 12.4366 35.0215C12.8732 35.0637 13.2937 35.3192 14.059 35.7831C14.467 36.0312 14.9743 36.3387 15.6118 36.6873ZM56.1825 3.02389C56.1825 2.61334 55.8489 2.2797 55.4384 2.2797H54.4784C54.0666 2.2797 53.7342 2.61334 53.7342 3.02389C53.7342 3.43567 54.0666 3.76808 54.4784 3.76808H55.4384C55.8489 3.76684 56.1825 3.43443 56.1825 3.02389ZM56.7581 2.44838C56.3475 2.44838 56.0139 2.11474 56.0139 1.70419V0.744189C56.0139 0.333645 56.3475 0 56.7581 0C57.1698 0 57.5022 0.333645 57.5022 0.744189V1.70419C57.5022 2.11474 57.1698 2.44838 56.7581 2.44838ZM57.3348 3.02389C57.3348 3.43567 57.6684 3.76808 58.079 3.76808H59.039C59.4495 3.76808 59.7832 3.43567 59.7832 3.02389C59.7832 2.61334 59.4495 2.2797 59.039 2.2797H58.079C57.6684 2.2797 57.3348 2.61334 57.3348 3.02389ZM56.0139 5.30359V4.34358C56.0139 3.93304 56.3475 3.59939 56.7581 3.59939C57.1698 3.59939 57.5022 3.93304 57.5022 4.34358V5.30359C57.5022 5.71413 57.1698 6.04778 56.7581 6.04778C56.3475 6.04902 56.0139 5.71537 56.0139 5.30359ZM3.76808 20.1452C3.76808 19.7347 3.43567 19.401 3.02389 19.401C2.61334 19.401 2.2797 19.7347 2.2797 20.1452V21.1052C2.2797 21.5157 2.61334 21.8494 3.02389 21.8494C3.43567 21.8494 3.76808 21.5157 3.76808 21.1052V20.1452ZM4.34482 18.0801H5.30483C5.71537 18.0801 6.04902 18.4137 6.04902 18.8243C6.04902 19.236 5.71537 19.5684 5.30483 19.5684H4.34482C3.93428 19.5684 3.60063 19.236 3.60063 18.8243C3.60063 18.4137 3.93428 18.0801 4.34482 18.0801ZM2.44838 18.8243C2.44838 19.236 2.11474 19.5684 1.70419 19.5684H0.744189C0.333645 19.5684 0 19.236 0 18.8243C0 18.4137 0.333645 18.0801 0.744189 18.0801H1.70419C2.11474 18.0801 2.44838 18.4137 2.44838 18.8243ZM3.76808 17.5046V16.5446C3.76808 16.1328 3.43567 15.8004 3.02389 15.8004C2.61334 15.8004 2.2797 16.1328 2.2797 16.5446V17.5046C2.2797 17.9151 2.61334 18.2488 3.02389 18.2488C3.43567 18.2488 3.76808 17.9151 3.76808 17.5046ZM16.4863 13.1089C16.8856 11.8078 17.8221 10.8714 19.1232 10.472L20.4429 10.0664C20.7554 9.96965 20.9688 9.6819 20.9688 9.35445C20.9688 9.02825 20.7554 8.73926 20.4429 8.64376L19.1232 8.23817C17.8221 7.83755 16.8856 6.90111 16.4863 5.60002L16.0807 4.28033C15.9852 3.96901 15.6962 3.75567 15.37 3.75567C15.0425 3.75567 14.7535 3.96777 14.658 4.28033L14.2525 5.60002C13.8531 6.90111 12.9166 7.83755 11.6156 8.23817L10.2959 8.64376C9.9833 8.73926 9.76996 9.02825 9.76996 9.35445C9.76996 9.6819 9.9833 9.96965 10.2959 10.0664L11.6156 10.472C12.9166 10.8714 13.8531 11.8078 14.2525 13.1089L14.658 14.4286C14.7535 14.7411 15.0425 14.9545 15.37 14.9545C15.6962 14.9545 15.9852 14.7411 16.0807 14.4286L16.4863 13.1089ZM28.0547 16.6835C28.0547 17.0953 28.3883 17.4277 28.7989 17.4277C29.2107 17.4277 29.5431 17.0953 29.5431 16.6835V15.4407C29.5431 15.0301 29.2107 14.6965 28.7989 14.6965C28.3883 14.6965 28.0547 15.0301 28.0547 15.4407V16.6835ZM27.0897 19.1381C27.5003 19.1381 27.8339 18.8044 27.8339 18.3939C27.8339 17.9833 27.5003 17.6497 27.0897 17.6497H25.8469C25.4364 17.6497 25.1027 17.9833 25.1027 18.3939C25.1027 18.8044 25.4364 19.1381 25.8469 19.1381H27.0897ZM29.5431 21.3458V20.1043C29.5431 19.6925 29.2107 19.3601 28.7989 19.3601C28.3883 19.3601 28.0547 19.6925 28.0547 20.1043V21.3458C28.0547 21.7576 28.3883 22.09 28.7989 22.09C29.2107 22.09 29.5431 21.7576 29.5431 21.3458ZM32.4963 18.3939C32.4963 17.9833 32.1626 17.6497 31.7521 17.6497H30.5093C30.0987 17.6497 29.7651 17.9833 29.7651 18.3939C29.7651 18.8044 30.0987 19.1381 30.5093 19.1381H31.7521C32.1626 19.1381 32.4963 18.8044 32.4963 18.3939ZM45.3434 19.5288C45.6572 18.5092 46.3617 17.8047 47.3813 17.4922L48.4479 17.1647C48.7605 17.068 48.9738 16.7802 48.9738 16.4528C48.9738 16.1266 48.7605 15.8376 48.4479 15.7421L47.3813 15.4134C46.3617 15.1008 45.6572 14.3963 45.3434 13.3768L45.016 12.3101C44.9205 11.9976 44.6315 11.7842 44.3053 11.7842C43.9779 11.7842 43.6901 11.9976 43.5933 12.3101L43.2659 13.3768C42.9571 14.3815 42.234 15.1046 41.2293 15.4134L40.1626 15.7421C39.8501 15.8376 39.6367 16.1266 39.6367 16.4528C39.6367 16.7802 39.8501 17.068 40.1626 17.1647L41.2293 17.4922C42.234 17.801 42.9571 18.5241 43.2659 19.5288L43.5933 20.5954C43.6901 20.908 43.9779 21.1213 44.3053 21.1213C44.6315 21.1213 44.9205 20.908 45.016 20.5954L45.3434 19.5288ZM54.585 45.3782C54.585 44.9676 54.9174 44.634 55.3292 44.634H59.039C59.4495 44.634 59.7832 44.9676 59.7832 45.3782C59.7832 45.7887 59.4495 46.1224 59.039 46.1224H55.3292C54.9174 46.1224 54.585 45.7887 54.585 45.3782ZM48.1217 46.1224H46.2675C45.8557 46.1224 45.5233 45.7887 45.5233 45.3782C45.5233 44.9676 45.8557 44.634 46.2675 44.634H48.1217C48.5335 44.634 48.8659 44.9676 48.8659 45.3782C48.8659 45.7887 48.5335 46.1224 48.1217 46.1224ZM49.8706 51.2796H53.5804C53.9909 51.2796 54.3246 51.6132 54.3246 52.0238C54.3246 52.4343 53.9909 52.768 53.5804 52.768H49.8706C49.46 52.768 49.1264 52.4343 49.1264 52.0238C49.1264 51.6132 49.46 51.2796 49.8706 51.2796ZM40.8088 51.2796H42.6631C43.0749 51.2796 43.4073 51.6132 43.4073 52.0238C43.4073 52.4343 43.0749 52.768 42.6631 52.768H40.8088C40.3971 52.768 40.0647 52.4343 40.0647 52.0238C40.0647 51.6132 40.3971 51.2796 40.8088 51.2796ZM10.9173 45.3782C10.9173 44.9676 11.2497 44.634 11.6614 44.634H13.5157C13.9275 44.634 14.2599 44.9676 14.2599 45.3782C14.2599 45.7887 13.9275 46.1224 13.5157 46.1224H11.6614C11.2497 46.1224 10.9173 45.7887 10.9173 45.3782ZM4.45397 46.1224H0.744189C0.333645 46.1224 0 45.7887 0 45.3782C0 44.9676 0.333645 44.634 0.744189 44.634H4.45397C4.86452 44.634 5.19816 44.9676 5.19816 45.3782C5.19816 45.7887 4.86452 46.1224 4.45397 46.1224ZM10.6568 52.0238C10.6568 52.4343 10.3231 52.768 9.9126 52.768H6.20282C5.79227 52.768 5.45863 52.4343 5.45863 52.0238C5.45863 51.6132 5.79227 51.2796 6.20282 51.2796H9.9126C10.3231 51.2796 10.6568 51.6132 10.6568 52.0238ZM18.9743 51.2796C19.3861 51.2796 19.7185 51.6132 19.7185 52.0238C19.7185 52.4343 19.3861 52.768 18.9743 52.768H17.1201C16.7083 52.768 16.3759 52.4343 16.3759 52.0238C16.3759 51.6132 16.7083 51.2796 17.1201 51.2796H18.9743Z" fill="#D4145A"/>
</svg>
