<?xml version="1.0" encoding="UTF-8"?>
<svg xmlns="http://www.w3.org/2000/svg" id="Layer_1" data-name="Layer 1" viewBox="0 0 64 64" width="512" height="512"><path d="M54.989,64A1,1,0,0,1,54,63.139a6.044,6.044,0,0,0-2.3-3.771,13.106,13.106,0,0,1-1.5-1.618,1,1,0,1,1,1.6-1.193,11.436,11.436,0,0,0,1.282,1.368,7.947,7.947,0,0,1,2.9,4.936,1,1,0,0,1-.852,1.129A.932.932,0,0,1,54.989,64Z"/><path d="M51.962,47c-.02,0-.041,0-.062,0a1,1,0,0,1-.937-1.06c.018-.291.028-.6.028-.938a4.89,4.89,0,0,0-.633-2.508,1,1,0,0,1,1.742-.984A6.917,6.917,0,0,1,52.991,45c0,.38-.011.732-.032,1.062A1,1,0,0,1,51.962,47Z"/><path d="M48.989,64A1,1,0,0,1,48,63.139a6.044,6.044,0,0,0-2.3-3.771c-1.269-1.219-2.708-2.6-2.708-5.368,0-.4.018-.763.051-1.1a1,1,0,1,1,1.99.194c-.027.276-.041.574-.041.9,0,1.916.924,2.8,2.093,3.925a7.945,7.945,0,0,1,2.9,4.936,1,1,0,0,1-.852,1.129A.932.932,0,0,1,48.989,64Z"/><path d="M61,64a1,1,0,0,1-.989-.861,5.329,5.329,0,0,0-1.721-3.2,1,1,0,1,1,1.422-1.406,7.332,7.332,0,0,1,2.279,4.332,1,1,0,0,1-.851,1.129A.951.951,0,0,1,61,64Z"/><path d="M3,64a.951.951,0,0,1-.14-.01,1,1,0,0,1-.851-1.129,7.942,7.942,0,0,1,2.9-4.936C6.076,56.8,7,55.916,7,54a7.446,7.446,0,0,0-.83-3.53A11.618,11.618,0,0,1,5,45a7.734,7.734,0,0,1,2.325-5.441C8.261,38.45,9,37.575,9,36a7.484,7.484,0,0,0-.866-3.807A10.473,10.473,0,0,1,7,27C7,10.854,17.042.005,31.989,0H32C46.953,0,57,10.851,57,27a10.473,10.473,0,0,1-1.134,5.193A7.484,7.484,0,0,0,55,36c0,1.575.739,2.45,1.675,3.559A7.734,7.734,0,0,1,59,45a11.592,11.592,0,0,1-1.143,5.408,1,1,0,0,1-1.826-.816A9.613,9.613,0,0,0,57,45a5.839,5.839,0,0,0-1.854-4.151A7.047,7.047,0,0,1,53,36a9.365,9.365,0,0,1,1.057-4.66A8.543,8.543,0,0,0,55,27C55,12.047,45.757,2,32,2S9,12.047,9,27a8.543,8.543,0,0,0,.943,4.34A9.365,9.365,0,0,1,11,36a7.047,7.047,0,0,1-2.146,4.849A5.839,5.839,0,0,0,7,45a9.645,9.645,0,0,0,1,4.654A9.346,9.346,0,0,1,9,54c0,2.768-1.439,4.149-2.708,5.368a6.045,6.045,0,0,0-2.3,3.771A1,1,0,0,1,3,64Z"/><path d="M9.011,64a.932.932,0,0,1-.14-.01,1,1,0,0,1-.852-1.129,7.945,7.945,0,0,1,2.9-4.936C12.085,56.8,13.009,55.916,13.009,54a7.458,7.458,0,0,0-.829-3.53A11.6,11.6,0,0,1,11.009,45a6.917,6.917,0,0,1,.891-3.492,1,1,0,0,1,1.742.984A4.89,4.89,0,0,0,13.009,45a9.645,9.645,0,0,0,1,4.654,9.346,9.346,0,0,1,1,4.346c0,2.768-1.439,4.149-2.708,5.368A6.044,6.044,0,0,0,10,63.139,1,1,0,0,1,9.011,64Z"/><path d="M15.011,64a.932.932,0,0,1-.14-.01,1,1,0,0,1-.852-1.129,7.945,7.945,0,0,1,2.9-4.936C18.085,56.8,19.009,55.916,19.009,54c0-.329-.014-.627-.041-.9a1,1,0,0,1,1.99-.194c.033.334.051.7.051,1.1,0,2.768-1.439,4.149-2.708,5.368A6.044,6.044,0,0,0,16,63.139,1,1,0,0,1,15.011,64Z"/><path d="M32,55C13.216,55,13,25.266,13,24a1,1,0,0,1,.941-1c.164-.01,16.512-1.076,21.185-9.488a1,1,0,0,1,1.832.2A13.559,13.559,0,0,0,50,23a1,1,0,0,1,1,1c0,.048,0,1.208-.138,3.073a1.013,1.013,0,0,1-1.07.925,1,1,0,0,1-.925-1.071c.059-.795.091-1.461.11-1.955A15.438,15.438,0,0,1,35.806,16.1c-5.314,6.843-17.268,8.481-20.782,8.82C15.216,29.863,16.926,53,32,53a12.4,12.4,0,0,0,7.415-2.322,1,1,0,1,1,1.17,1.622A14.365,14.365,0,0,1,32,55Z"/><path d="M21,64a1,1,0,0,1-.324-1.946C24.93,60.6,25,54.489,25,54.427V53a1,1,0,0,1,2,0v1.429c0,.309-.064,7.593-5.676,9.517A.992.992,0,0,1,21,64Z"/><path d="M43,64a.992.992,0,0,1-.324-.054C37.064,62.022,37,54.738,37,54.429V53a1,1,0,0,1,2,0v1.429c0,.06.07,6.166,4.324,7.625A1,1,0,0,1,43,64Z"/><path d="M38,50A13,13,0,1,1,51,37,13.015,13.015,0,0,1,38,50Zm0-24A11,11,0,1,0,49,37,11.013,11.013,0,0,0,38,26Z"/><path d="M50,51a1,1,0,0,1-.707-.293l-4-4a1,1,0,0,1,1.414-1.414l4,4A1,1,0,0,1,50,51Z"/><path d="M56,59a1,1,0,0,1-.707-.293l-7-7a1,1,0,0,1,0-1.414l2-2a1,1,0,0,1,1.414,0l7,7a1,1,0,0,1,0,1.414l-2,2A1,1,0,0,1,56,59Zm-5.586-8L56,56.586,56.586,56,51,50.414Z"/><circle cx="33" cy="34" r="1"/><circle cx="32" cy="40" r="1"/><circle cx="38" cy="44" r="1"/><circle cx="44" cy="39" r="1"/><circle cx="42" cy="32" r="1"/><circle cx="38" cy="37" r="1"/></svg>
