<svg viewBox="0 0 48 48" xmlns="http://www.w3.org/2000/svg"><g id="Layer_2" fill="none" stroke="#353535" stroke-linecap="round" stroke-width="2" data-name="Layer 2"><path d="m35.99939 47 9.38573-10.00235a6.12629 6.12629 0 0 0 -9.38573-7.87429 6.13913 6.13913 0 1 0 -8.99325 8.35z" stroke-linejoin="round"/><g stroke-miterlimit="10"><path d="m3 45 .30357-5.7647a8.22945 8.22945 0 0 1 1.08835-3.3184 8.22976 8.22976 0 0 1 4.61388-3.6805l9.4942-3.0056v-4.8141l-.7104-.8864a9.49328 9.49328 0 0 1 -2.0435-4.4535l-.0708-.3896a8.31482 8.31482 0 0 1 -.1343-1.4889v-.0512l-.006-3.4818"/><path d="m23.5324 25.6378h.0002a8.32309 8.32309 0 0 0 3.7673-2.3736h.0001a8.32288 8.32288 0 0 0 2.0299-4.1094l.0709-.3895a8.32558 8.32558 0 0 0 .1342-1.4889v-.1293l-.0206-3.4818h-4.3282a14.6315 14.6315 0 0 1 -9.6862-3.6653"/><path d="m33.44035 20.66931c-.09652-2.17461-.145-4.13417-.145-5.33091l.005-3.401a10.87928 10.87928 0 0 0 -10.86905-10.9374 10.87934 10.87934 0 0 0 -10.8691 10.9374l.005 3.401c0 3.3571-.3811 12.7169-1.1359 15.988"/></g></g></svg>