<svg id="Layer_1" enable-background="new 0 0 480 480" height="512" viewBox="0 0 480 480" width="512" xmlns="http://www.w3.org/2000/svg"><g><path d="m367.93 338.495c-3.443-2.768-8.479-2.217-11.246 1.229-2.767 3.444-2.217 8.48 1.229 11.246 14.036 11.272 22.087 28.05 22.087 46.03 0 32.532-26.468 59-59 59s-59-26.468-59-59c0-31.194 24.365-57.065 55.471-58.896 4.354-.285 7.529-3.872 7.529-7.981v-99.496c0-26.262-21.365-47.627-47.626-47.627h-137.374v-32.244c0-8.688 7.068-15.756 15.756-15.756h97.488c8.688 0 15.756 7.068 15.756 15.756v8.244c0 4.418 3.582 8 8 8s8-3.582 8-8v-8.244c0-16.675-12.922-30.379-29.277-31.649-3.317-3.667-9.723-12.132-9.723-31.256v-46.351c0-22.883-18.617-41.5-41.5-41.5s-41.5 18.617-41.5 41.5c0 0-.017 48.238-.05 49.133-.161 4.415 3.287 8.125 7.703 8.287 4.412.135 8.126-3.287 8.287-7.703.087-2.422.06 1.629.06-49.717 0-14.061 11.439-25.5 25.5-25.5s25.5 11.439 25.5 25.5v46.351c0 14.307 2.982 24.273 6.407 31.149h-80.651c-17.51 0-31.756 14.246-31.756 31.756v32.862c-22.647 3.661-40 23.343-40 47.008v209.673c0 21.891 17.81 39.701 39.701 39.701h122.46c4.418 0 8-3.582 8-8s-3.582-8-8-8h-122.46c-13.069 0-23.701-10.632-23.701-23.701v-18.299h120.354c4.418 0 8-3.582 8-8s-3.582-8-8-8h-120.354v-175.374c0-17.438 14.188-31.626 31.626-31.626h145.748c17.439 0 31.626 14.188 31.626 31.626v30.374h-170.581c-4.418 0-8 3.582-8 8s3.582 8 8 8h170.581v45.96c-35.881 5.771-63 36.941-63 74.04 0 41.355 33.645 75 75 75s75-33.645 75-75c0-22.855-10.231-44.18-28.07-58.505z"/><path d="m307.02 371.705c-3.125-3.123-8.189-3.123-11.314 0-3.124 3.125-3.124 8.189 0 11.314l13.98 13.98-13.98 13.98c-5.055 5.057-1.406 13.657 5.657 13.657 2.048 0 4.095-.781 5.657-2.343l13.98-13.98 13.98 13.98c1.563 1.562 3.609 2.343 5.657 2.343 7.065 0 10.711-8.602 5.657-13.657l-13.98-13.979 13.98-13.98c3.124-3.125 3.124-8.189 0-11.314-3.125-3.123-8.189-3.123-11.314 0l-13.98 13.98z"/><path d="m204 324c9.925 0 18 8.075 18 18 0 4.418 3.582 8 8 8s8-3.582 8-8c0-18.748-15.252-34-34-34s-34 15.252-34 34 15.252 34 34 34c4.418 0 8-3.582 8-8s-3.582-8-8-8c-9.925 0-18-8.075-18-18s8.075-18 18-18z"/></g></svg>