<svg id="Layer_1" enable-background="new 0 0 512 512" viewBox="0 0 512 512" xmlns="http://www.w3.org/2000/svg"><path d="m155.16 280.34-15.15-8.56c-5.86-3.31-9.09-8.85-9.09-15.58v-29.93c0-3.31-2.69-6-6-6h-58.44c-3.31 0-6 2.69-6 6v29.93c0 6.73-3.23 12.27-9.09 15.58l-15.14 8.56c-13.5 7.64-21.25 20.92-21.25 36.43v160.52c0 10.87 8.84 19.71 19.71 19.71h121.99c10.87 0 19.71-8.84 19.71-19.71v-160.52c0-15.51-7.75-28.79-21.25-36.43zm-128.16 91.51h78.94v78.96h-78.94zm137.41 105.44c0 4.25-3.46 7.71-7.71 7.71h-121.99c-4.25 0-7.71-3.46-7.71-7.71v-14.48h84.94c3.31 0 6-2.69 6-6v-90.96c0-3.31-2.69-6-6-6h-84.94v-43.08c0-11.07 5.52-20.54 15.16-25.98l15.14-8.56c4.83-2.73 8.63-6.47 11.22-10.92h36.74c3.31 0 6-2.69 6-6s-2.69-6-6-6h-32.94c.1-1.02.16-2.06.16-3.11v-23.93h46.44v23.93c0 11.08 5.53 20.57 15.18 26.03l15.15 8.56c9.63 5.45 15.16 14.92 15.16 25.98zm328.04 7.89c-36.81-9.14-80.23-38.04-110.63-73.62-9.66-11.31-16.57-24.04-21.69-40.19 1.86.93 3.85 1.4 5.83 1.4 3.38 0 6.71-1.32 9.24-3.85 4.07-4.07 5.02-10.21 2.36-15.29l-14.58-27.84c-.28-.54-.64-1.03-1.07-1.46l-14.82-14.82-9.21-49.12c8.8-17.22 16.82-28.49 25.87-36.36 25.67-22.32 61.03-37.69 98.46-53.97 10.25-4.46 20.85-9.07 31.26-13.83.01-.01.03-.01.04-.02 1.26-.58 2.33-1.59 2.96-2.95 1.38-3.01.06-6.57-2.95-7.95-26.63-12.2-45.81-22.73-62.18-34.12-19.77-13.75-29.45-35.73-24.1-54.69 9.32-33.04 50.09-32.48 82.65-26.19 3.25.63 6.4-1.5 7.03-4.75s-1.5-6.4-4.75-7.03c-53.01-10.24-87.27 2.08-96.47 34.71-.61 2.16-1.06 4.35-1.38 6.56-35.72 24.32-62.86 54.92-76.57 86.43-16.72 38.42-13.88 78.3 8.17 115.4l6.16 32.86-82.25-82.25 17.39-17.39c2.34-2.34 2.34-6.14 0-8.48l-24.31-24.31c-6.37-6.37-16.74-6.37-23.11 0l-1.67 1.67-17.69-7.07-28.11-28.11c-10.34-10.34-27.16-10.34-37.49 0-4.99 4.99-7.74 11.65-7.74 18.75s2.75 13.75 7.74 18.75l28.11 28.11 7.07 17.69-1.67 1.67c-6.37 6.37-6.37 16.73 0 23.1l24.31 24.31c1.12 1.13 2.65 1.76 4.24 1.76s3.12-.63 4.24-1.76l17.39-17.39 112.09 112.09c.43.43.92.79 1.46 1.07l13.44 7.04c5.8 23.22 14.24 40.48 27.18 55.63 31.92 37.36 77.79 67.76 116.86 77.47.49.12.97.18 1.45.18 2.69 0 5.14-1.82 5.82-4.55.79-3.24-1.17-6.49-4.38-7.29zm-98.17-410.71c2.39 17.53 13.15 34.71 30.18 46.56 17.33 12.05 35.99 21.86 52.15 29.61-6.44 2.86-12.89 5.67-19.2 8.41-38.31 16.66-74.49 32.39-101.55 55.92-10.35 9-18.27 20.88-24.4 31.89-34.35-68.36 7.58-132.17 62.82-172.39zm-220.66 114.08c-.3-.75-.75-1.44-1.33-2.01l-28.98-28.98c-2.72-2.73-4.23-6.37-4.23-10.26s1.5-7.54 4.23-10.26c5.66-5.66 14.87-5.66 20.52 0l28.98 28.98c.57.58 1.26 1.03 2.01 1.33l14.05 5.62-29.64 29.64zm23.27 59.64-20.07-20.06c-.81-.81-1.26-1.9-1.26-3.07s.45-2.26 1.26-3.07l51.44-51.44c.85-.85 1.96-1.27 3.07-1.27s2.22.42 3.07 1.27l20.06 20.06zm44.43-27.46 44.66 44.66h-28.63l-30.34-30.34zm28.03 56.65h28.63l54.78 54.79 14.16 27.03c.29.55.04.98-.21 1.24-.26.26-.68.5-1.24.21l-27.03-14.16zm177.31 3.79c3.06 1.26 4.52 4.77 3.26 7.84-5.39 13.06-19.85 21.83-35.98 21.83s-30.59-8.77-35.98-21.83c-1.26-3.06.19-6.57 3.26-7.84 3.06-1.26 6.57.19 7.84 3.26 3.56 8.62 13.56 14.41 24.89 14.41s21.33-5.79 24.89-14.41c1.25-3.07 4.76-4.53 7.82-3.26zm50.34 133.65c0 3.31-2.69 6-6 6-21.61 0-40.94-11.67-48.12-29.05-1.26-3.06.19-6.57 3.26-7.84 3.06-1.26 6.57.19 7.84 3.26 5.34 12.94 20.22 21.63 37.03 21.63 3.3 0 5.99 2.68 5.99 6z"/></svg>